<svg xmlns="http://www.w3.org/2000/svg" width="1364" height="486" viewBox="0 0 1364 486">
  <path fill="none" stroke="#000" stroke-linecap="round" stroke-linejoin="round" stroke-width="25" d="m12 90 10-4c2.213 33.674 4.964 60.008 6 74 5.15 69.568 6.984 115.05 15 177 4.687 36.222 12.932 75.673 24 111 7.799 24.895 30.485 41.835 48 2 29.185-66.375 44.797-152.93 55-224 7.027-48.946 8.63-111.276 26-158 3.313-8.912 5.526 27.471 5 42-3.497 96.602 12.092 172.96 40 236 23.858 53.892 56.027 96 97 105 35.142 7.72 44.79-19.383 42-64-6.599-105.556-31.744-242.323-50-333-5.445-27.044-7.983-32.852-14-41-.133-.18-8.595 44.25-5 67M426 355c-3.865 19.063-7.767 42.448-3 60 .685 2.52 10.608-11.842 12-21M473 31c-10.231 62.7-8.245 113.847-6 176 1.973 54.629 3.281 169.916 18 194 9.896 16.194 10.836 9.437 14-9 2.005-11.681 1.938-19.313 5-33M536 40c-8.431 62.492-5.968 119.634-3 179 3.022 60.44 10.97 152.305 28 207M663 108c.011 79.45-.932 183.544 0 271 .296 27.777-1.402 66.246 7 93 .674 2.145 10.447-14.855 13-30"/>
  <path fill="none" stroke="#000" stroke-linecap="round" stroke-linejoin="round" stroke-width="25" d="M654 327c.985 30.987 13.402 32.02 35 28 31.687-5.899 50.783-16.703 58-47 1.374-5.77 5.7-24.846 8-41M791 66c-22.883 11.522-23.2 69.941-23 103 .385 63.725-.387 130.142 8 188 4.425 30.528 11.039 76.724 29 104M880 134c5.354 79.424 14.793 160.36 26 221 5.774 31.241 13.075 45.55 17 44"/>
  <path fill="none" stroke="#000" stroke-linecap="round" stroke-linejoin="round" stroke-width="25" d="M876 159c-10.886-9.834-26.717-20.03-16-35 24.719-34.53 45.172-39.51 86-46 26.421-4.2 68.21 6.884 64 22-6.69 24.027-34.362 54.578-48 75-8.793 13.166-30.614 38.386-35 54-2.474 8.806 39.175 28.555 57 35 35.733 12.919 84.396 30.707 102 48 18.153 17.833-7.359 39.834-20 48-28.5 18.41-75.923 37.695-113 37-17.698-.332 17.842-27.578 29-32M1144 122c-16.355-4.757-16.557 26.613-17 35-2.059 38.96 6.076 131.524 9.22 195.471.656 13.374 1.132 39.936 6.78 52.529 1.181 2.633 7.464-15.171 8-16"/>
  <path fill="none" stroke="#000" stroke-linecap="round" stroke-linejoin="round" stroke-width="25" d="M1134 171c-22.22-50.776-36.163-37.226-42-62-3.915-16.618 15.65-30.099 45-33 33.694-3.33 42.74-1.605 71 2 18.95 2.418 51.261 13.614 46 36-6.375 27.122-30.075 62.763-46 87-17.383 26.455-34.74 55.437-46 85-13.559 35.592 31.352 62.609 57 72 37.482 13.725 93.664 26.475 132 37"/>
</svg>
